Coordinates
version=1
nRows=60
nColumns=12
inDegrees=yes

Units are S.I. units (second, meters, Newtons, ...)
Angles are in degrees

endheader
time	SC_y	SC_z	SC_x	AC_y	AC_z	AC_x	GH_y	GH_z	GH_yy	EL_x	PS_y
       0.0              -35.36          24.12          20.43          58.64         -15.26          11.19         -21.14          77.94          41.16          90.49          13.64
   0.03052              -35.35          24.12          20.44          58.64         -15.26          11.18         -21.14          77.94          41.16          90.48          13.64
   0.06104              -35.35          24.12          20.44          58.64         -15.26          11.18         -21.14          77.94          41.16          90.47          13.64
   0.09156              -35.35          24.12          20.45          58.64         -15.26          11.18         -21.14          77.94          41.16          90.45          13.64
    0.1221              -35.35          24.12          20.46          58.64         -15.26          11.18         -21.14          77.94          41.16          90.44          13.64
    0.1526              -35.34          24.12          20.46          58.65         -15.26          11.18         -21.14          77.94          41.16          90.42          13.64
    0.1831              -35.34          24.11          20.47          58.65         -15.26          11.18         -21.14          77.93          41.16          90.41          13.64
    0.2136              -35.33          24.11          20.48          58.65         -15.26          11.18         -21.14          77.93          41.16          90.39          13.64
    0.2442              -35.33          24.11          20.49          58.65         -15.26          11.17         -21.14          77.93          41.16          90.37          13.64
    0.2747              -35.33          24.11          20.49          58.66         -15.25          11.17         -21.15          77.93          41.15          90.35          13.64
    0.3052              -35.32          24.11           20.5          58.66         -15.25          11.17         -21.15          77.93          41.15          90.33          13.64
    0.3357              -35.32          24.11          20.51          58.66         -15.25          11.17         -21.15          77.93          41.15          90.31          13.64
    0.3662              -35.31           24.1          20.52          58.66         -15.25          11.16         -21.15          77.93          41.15          90.28          13.64
    0.3968               -35.3           24.1          20.54          58.67         -15.25          11.16         -21.15          77.93          41.15          90.26          13.63
    0.4273               -35.3           24.1          20.55          58.67         -15.25          11.16         -21.15          77.93          41.15          90.23          13.63
    0.4578              -35.29           24.1          20.56          58.67         -15.25          11.16         -21.15          77.92          41.14           90.2          13.63
    0.4883              -35.28          24.09          20.58          58.68         -15.25          11.15         -21.16          77.92          41.14          90.16          13.63
    0.5188              -35.27          24.09           20.6          58.68         -15.25          11.15         -21.16          77.92          41.14          90.13          13.63
    0.5494              -35.26          24.08          20.61          58.69         -15.25          11.14         -21.16          77.92          41.14          90.08          13.63
    0.5799              -35.25          24.08          20.63          58.69         -15.25          11.14         -21.16          77.92          41.14          90.04          13.63
    0.6104              -35.24          24.08          20.65           58.7         -15.25          11.13         -21.17          77.91          41.13          89.99          13.62
    0.6409              -35.23          24.07          20.68           58.7         -15.24          11.13         -21.17          77.91          41.13          89.94          13.62
    0.6714              -35.22          24.07           20.7          58.71         -15.24          11.12         -21.17          77.91          41.12          89.88          13.62
     0.702               -35.2          24.06          20.73          58.72         -15.24          11.12         -21.18          77.91          41.12          89.81          13.62
    0.7325              -35.18          24.05          20.77          58.73         -15.24          11.11         -21.18           77.9          41.12          89.74          13.61
     0.763              -35.16          24.04           20.8          58.74         -15.24           11.1         -21.18           77.9          41.11          89.66          13.61
    0.7935              -35.14          24.04          20.84          58.75         -15.23          11.09         -21.19          77.89          41.11          89.57          13.61
    0.8241              -35.12          24.03          20.89          58.76         -15.23          11.08         -21.19          77.89           41.1          89.47           13.6
    0.8546              -35.09          24.02          20.94          58.77         -15.23          11.07          -21.2          77.88          41.09          89.35           13.6
    0.8851              -35.06           24.0           21.0          58.79         -15.23          11.06         -21.21          77.88          41.08          89.22          13.59
    0.9156              -35.03          23.99          21.07           58.8         -15.22          11.04         -21.22          77.87          41.07          89.07          13.59
    0.9461              -34.99          23.97          21.14          58.82         -15.22          11.02         -21.23          77.86          41.06           88.9          13.58
    0.9767              -34.94          23.95          21.23          58.85         -15.21           11.0         -21.24          77.85          41.05           88.7          13.57
     1.007              -34.89          23.93          21.33          58.87         -15.21          10.98         -21.25          77.84          41.04          88.47          13.56
     1.038              -34.82          23.91          21.45           58.9          -15.2          10.95         -21.26          77.83          41.02           88.2          13.55
     1.068              -34.75          23.88           21.6          58.94         -15.19          10.92         -21.28          77.81           41.0          87.88          13.54
     1.099              -34.66          23.84          21.77          58.99         -15.18          10.88          -21.3           77.8          40.98          87.51          13.52
     1.129              -34.56           23.8          21.97          59.04         -15.17          10.83         -21.33          77.77          40.95          87.05           13.5
      1.16              -34.43          23.75          22.21           59.1         -15.16          10.78         -21.36          77.75          40.91          86.51          13.48
      1.19              -34.27          23.69          22.51          59.18         -15.14          10.71          -21.4          77.72          40.87          85.84          13.45
     1.221              -34.08          23.61          22.88          59.28         -15.12          10.62         -21.44          77.68          40.82          85.01          13.42
     1.251              -33.84          23.51          23.34           59.4         -15.09          10.52          -21.5          77.63          40.75          83.98          13.37
     1.282              -33.54          23.39          23.92          59.55         -15.06          10.38         -21.57          77.56          40.67          82.69          13.32
     1.312              -33.16          23.24          24.66          59.74         -15.01          10.21         -21.66          77.48          40.57          81.04          13.25
     1.343              -32.66          23.04           25.6          59.98         -14.96          9.995         -21.78          77.38          40.43          78.93          13.16
     1.373              -32.03          22.78          26.81           60.3         -14.89          9.716         -21.93          77.25          40.26          76.22          13.05
     1.404              -31.23          22.46          28.36           60.7          -14.8           9.36         -22.12          77.09          40.04          72.76          12.91
     1.434              -30.22          22.05           30.3           61.2         -14.69          8.912         -22.36          76.88          39.77          68.41          12.72
     1.465              -28.98          21.56          32.67          61.82         -14.55          8.366         -22.65          76.62          39.43          63.11           12.5
     1.496              -27.55          20.98          35.42          62.53         -14.39          7.734         -22.99          76.33          39.05          56.97          12.25
     1.526               -26.0          20.36          38.39          63.31         -14.22          7.048         -23.35          76.01          38.63          50.31          11.97
     1.557              -24.45          19.73          41.36          64.08         -14.05          6.363         -23.72          75.69          38.21          43.66          11.69
     1.587              -23.02          19.16          44.11          64.79         -13.89          5.731         -24.06          75.39          37.82          37.52          11.43
     1.618              -21.79          18.66          46.48          65.41         -13.76          5.185         -24.35          75.14          37.48          32.22          11.21
     1.648              -20.77          18.25          48.42          65.92         -13.65          4.737         -24.59          74.93          37.21          27.87          11.03
     1.679              -19.97          17.93          49.97          66.32         -13.56          4.381         -24.78          74.76          36.99          24.41          10.89
     1.709              -19.34          17.67          51.18          66.63         -13.49          4.102         -24.93          74.63          36.82           21.7          10.78
      1.74              -18.85          17.48          52.12          66.88         -13.43          3.884         -25.05          74.53          36.69          19.59          10.69
      1.77              -18.46          17.32          52.86          67.07         -13.39          3.715         -25.14          74.45          36.58          17.94          10.62
     1.801              -18.16           17.2          53.44          67.22         -13.36          3.581         -25.21          74.39           36.5          16.65          10.56
